<svg xmlns="http://www.w3.org/2000/svg" viewBox="0 0 105 105"><defs><style>.cls-1{fill:#262626;}.cls-2,.cls-3{fill:none;stroke:#fff;stroke-miterlimit:10;stroke-width:3px;}.cls-3{stroke-linecap:round;}</style></defs><title>Casos confirmados</title><g id="Camada_2" data-name="Camada 2"><g id="Camada_1-2" data-name="Camada 1"><g id="Camada_1-2-2" data-name="Camada 1-2"><circle class="cls-1" cx="52.5" cy="52.5" r="52.5"/></g><circle class="cls-2" cx="60.35" cy="50.24" r="4.97"/><circle class="cls-2" cx="46.87" cy="42.1" r="4.97"/><circle class="cls-2" cx="46.87" cy="57.47" r="4.97"/><path class="cls-3" d="M52.5,75.29a22.76,22.76,0,0,0,16.12-6.67"/><path class="cls-3" d="M29.71,52.5a22.76,22.76,0,0,0,6.67,16.12"/><path class="cls-3" d="M68.62,68.62A22.76,22.76,0,0,0,75.29,52.5"/><path class="cls-3" d="M68.62,36.38A22.76,22.76,0,0,0,52.5,29.71"/><path class="cls-3" d="M36.38,36.38A22.76,22.76,0,0,1,52.5,29.71"/><path class="cls-3" d="M36.38,68.62A22.76,22.76,0,0,0,52.5,75.29"/><path class="cls-3" d="M29.71,52.5a22.76,22.76,0,0,1,6.67-16.12"/><path class="cls-3" d="M68.62,36.38A22.76,22.76,0,0,1,75.29,52.5"/><line class="cls-3" x1="52.5" y1="29.71" x2="52.5" y2="22.69"/><line class="cls-3" x1="52.5" y1="75.29" x2="52.5" y2="82.31"/><line class="cls-3" x1="57.02" y1="22.69" x2="52.5" y2="22.69"/><line class="cls-3" x1="47.98" y1="22.69" x2="52.5" y2="22.69"/><line class="cls-3" x1="57.02" y1="82.31" x2="52.5" y2="82.31"/><line class="cls-3" x1="47.98" y1="82.31" x2="52.5" y2="82.31"/><line class="cls-3" x1="36.38" y1="68.62" x2="31.42" y2="73.58"/><line class="cls-3" x1="73.58" y1="31.42" x2="73.58" y2="31.42"/><line class="cls-3" x1="31.42" y1="73.58" x2="31.42" y2="73.58"/><line class="cls-3" x1="73.58" y1="31.42" x2="68.62" y2="36.38"/><line class="cls-3" x1="70.39" y1="28.22" x2="73.58" y2="31.42"/><line class="cls-3" x1="76.78" y1="34.61" x2="73.58" y2="31.42"/><line class="cls-3" x1="31.42" y1="73.58" x2="28.22" y2="70.39"/><line class="cls-3" x1="31.42" y1="73.58" x2="34.61" y2="76.78"/><line class="cls-3" x1="29.71" y1="52.5" x2="22.69" y2="52.5"/><line class="cls-3" x1="82.31" y1="52.5" x2="75.29" y2="52.5"/><line class="cls-3" x1="82.31" y1="47.98" x2="82.31" y2="52.5"/><line class="cls-3" x1="82.31" y1="52.5" x2="82.31" y2="57.02"/><line class="cls-3" x1="22.69" y1="47.98" x2="22.69" y2="52.5"/><line class="cls-3" x1="22.69" y1="57.02" x2="22.69" y2="52.5"/><line class="cls-3" x1="31.42" y1="31.42" x2="31.42" y2="31.42"/><line class="cls-3" x1="31.42" y1="31.42" x2="36.38" y2="36.38"/><line class="cls-3" x1="68.62" y1="68.62" x2="73.58" y2="73.58"/><line class="cls-3" x1="70.39" y1="76.78" x2="73.58" y2="73.58"/><line class="cls-3" x1="73.58" y1="73.58" x2="76.78" y2="70.39"/><line class="cls-3" x1="28.22" y1="34.61" x2="31.42" y2="31.42"/><line class="cls-3" x1="31.42" y1="31.42" x2="34.61" y2="28.22"/></g></g></svg>