<svg xmlns="http://www.w3.org/2000/svg" viewBox="0 0 105 105"><defs><style>.cls-1{fill:#262626;}.cls-2{fill:none;stroke:#fff;stroke-miterlimit:10;stroke-width:3px;}.cls-3{fill:#fff;}</style></defs><title>Curados</title><g id="Camada_2" data-name="Camada 2"><g id="Camada_1-2" data-name="Camada 1"><g id="Camada_2-2" data-name="Camada 2"><g id="Camada_1-2-2" data-name="Camada 1-2"><circle class="cls-1" cx="52.5" cy="52.5" r="52.5"/></g></g><path class="cls-2" d="M71.89,52.5,78.42,46a6.74,6.74,0,0,0,0-9.53l-9.85-9.85a6.74,6.74,0,0,0-9.53,0L52.5,33.11"/><path class="cls-2" d="M52.5,71.89,46,78.42a6.74,6.74,0,0,1-9.53,0l-9.85-9.85a6.74,6.74,0,0,1,0-9.53l6.53-6.54"/><path class="cls-2" d="M71.89,52.5,78.42,59a6.74,6.74,0,0,1,0,9.53l-9.85,9.85a6.74,6.74,0,0,1-9.53,0L52.5,71.89"/><line class="cls-2" x1="52.5" y1="71.89" x2="33.11" y2="52.5"/><path class="cls-2" d="M33.11,52.5,26.58,46a6.74,6.74,0,0,1,0-9.53l9.85-9.85a6.74,6.74,0,0,1,9.53,0l6.54,6.53"/><line class="cls-2" x1="71.89" y1="52.5" x2="52.5" y2="33.11"/><path class="cls-3" d="M65.57,68.91a1.84,1.84,0,1,0,1.3.54,1.83,1.83,0,0,0-1.3-.54Z"/><path class="cls-3" d="M70.74,63.74a1.84,1.84,0,1,0,1.3.54,1.83,1.83,0,0,0-1.3-.54Z"/><path class="cls-3" d="M61.75,65.09a1.83,1.83,0,1,0,0,3.66A1.82,1.82,0,0,0,63,68.22h0a1.83,1.83,0,0,0-1.29-3.13Z"/><path class="cls-3" d="M66.92,59.92a1.83,1.83,0,0,0-1.3,3.13h0a1.82,1.82,0,0,0,1.3.53,1.78,1.78,0,0,0,1.29-.53h0a1.83,1.83,0,0,0-1.29-3.13Z"/><path class="cls-3" d="M72.34,36a1.84,1.84,0,1,0,1.3.54,1.83,1.83,0,0,0-1.3-.54Z"/><path class="cls-3" d="M67.17,30.83a1.78,1.78,0,0,0-1.29.53,1.83,1.83,0,0,0,1.29,3.13,1.83,1.83,0,0,0,1.3-3.13,1.82,1.82,0,0,0-1.3-.53Z"/><path class="cls-3" d="M68.52,39.82a1.83,1.83,0,1,0,1.3.53,1.86,1.86,0,0,0-1.3-.53Z"/><path class="cls-3" d="M63.35,34.65a1.86,1.86,0,0,0-1.3.53h0a1.85,1.85,0,0,0,0,2.6,1.86,1.86,0,0,0,2.6,0,1.85,1.85,0,0,0,0-2.6h0a1.86,1.86,0,0,0-1.3-.53Z"/><path class="cls-3" d="M41.65,66.69a1.82,1.82,0,0,0-1.3.53,1.84,1.84,0,1,0,2.6,0,1.82,1.82,0,0,0-1.3-.53Z"/><path class="cls-3" d="M36.48,61.52a1.83,1.83,0,1,0,1.3.53,1.86,1.86,0,0,0-1.3-.53Z"/><path class="cls-3" d="M37.83,70.51a1.86,1.86,0,0,0-1.3.53h0a1.85,1.85,0,0,0,0,2.6,1.82,1.82,0,0,0,1.3.53,1.78,1.78,0,0,0,1.29-.53h0a1.83,1.83,0,0,0,0-2.6h0a1.82,1.82,0,0,0-1.29-.53Z"/><path class="cls-3" d="M32.66,65.34a1.84,1.84,0,0,0-1.3,3.13h0a1.83,1.83,0,0,0,2.6,0h0a1.84,1.84,0,0,0-1.3-3.13Z"/><path class="cls-3" d="M37.48,40.82a1.84,1.84,0,1,0,1.3.54,1.83,1.83,0,0,0-1.3-.54Z"/><path class="cls-3" d="M42.65,35.65a1.83,1.83,0,0,0-1.3.54h0a1.83,1.83,0,1,0,2.6,0h0a1.83,1.83,0,0,0-1.3-.54Z"/><path class="cls-3" d="M33.66,37a1.82,1.82,0,0,0-1.3.53,1.83,1.83,0,0,0,1.3,3.13A1.83,1.83,0,0,0,35,37.53,1.78,1.78,0,0,0,33.66,37Z"/><path class="cls-3" d="M38.82,31.83a1.83,1.83,0,1,0,0,3.66,1.86,1.86,0,0,0,1.3-.53,1.83,1.83,0,0,0,0-2.6,1.86,1.86,0,0,0-1.3-.53Z"/><rect class="cls-2" x="42.71" y="47.28" width="19.59" height="10.44" rx="4.19" transform="translate(52.5 126.75) rotate(-135)"/></g></g></svg>