<svg xmlns="http://www.w3.org/2000/svg" viewBox="0 0 105 105"><defs><style>.cls-1{fill:#262626;}.cls-2,.cls-3{fill:none;stroke:#fff;stroke-miterlimit:10;stroke-width:3px;}.cls-3{stroke-linecap:round;}.cls-4{fill:#fff;}</style></defs><title>Mortes</title><g id="Camada_2" data-name="Camada 2"><g id="Camada_1-2" data-name="Camada 1"><g id="Camada_2-2" data-name="Camada 2"><g id="Camada_1-2-2" data-name="Camada 1-2"><circle class="cls-1" cx="52.5" cy="52.5" r="52.5"/></g></g><path class="cls-2" d="M69,69.74a6.3,6.3,0,0,1,1.68-4.37c4.19-4.39,6.16-10.44,6.16-17.11a24.31,24.31,0,0,0-48.62,0c0,6.67,2,12.72,6.16,17.11A6.3,6.3,0,0,1,36,69.74V74a7.08,7.08,0,0,0,7.06,7.06H61.91A7.08,7.08,0,0,0,69,74Z"/><line class="cls-3" x1="46.92" y1="81.05" x2="46.92" y2="68.21"/><line class="cls-3" x1="58.08" y1="81.05" x2="58.08" y2="68.21"/><circle class="cls-4" cx="43.92" cy="54.05" r="4.93"/><circle class="cls-4" cx="61.08" cy="54.05" r="4.93"/></g></g></svg>