<svg xmlns="http://www.w3.org/2000/svg" viewBox="0 0 585.86 201.89"><defs><style>.cls-1,.cls-2{fill:none;stroke-linecap:round;stroke-miterlimit:10;stroke-width:4px;}.cls-1{stroke:#fff;}.cls-2{stroke:#dac960;}.cls-3{fill:#fff;}</style></defs><title>Ativo 8</title><g id="Camada_2" data-name="Camada 2"><g id="Camada_1-2" data-name="Camada 1"><path class="cls-1" d="M184.36,93.18a91.11,91.11,0,0,1-42,76.77h0L137.24,173,92.76,199.56,48.2,172.51l-4.51-2.74A91.18,91.18,0,1,1,184.36,93.18Z"/><line class="cls-2" x1="100.99" y1="17.41" x2="93.39" y2="17.41"/><line class="cls-2" x1="85.79" y1="17.41" x2="93.39" y2="17.41"/><line class="cls-2" x1="85.79" y1="169.37" x2="93.39" y2="169.37"/><line class="cls-2" x1="100.99" y1="169.37" x2="93.39" y2="169.37"/><line class="cls-2" x1="93.39" y1="32.6" x2="93.39" y2="17.41"/><line class="cls-2" x1="93.39" y1="154.18" x2="93.39" y2="169.37"/><path class="cls-2" d="M50.41,136.37a60.59,60.59,0,0,0,43,17.81"/><path class="cls-2" d="M32.6,93.39a60.59,60.59,0,0,0,17.81,43"/><path class="cls-2" d="M154.18,93.39a60.59,60.59,0,0,0-17.81-43"/><path class="cls-2" d="M93.39,154.18a60.59,60.59,0,0,0,43-17.81"/><path class="cls-2" d="M136.37,136.37a60.59,60.59,0,0,0,17.81-43"/><path class="cls-2" d="M93.39,32.6a60.59,60.59,0,0,0-43,17.81"/><path class="cls-2" d="M136.37,50.41a60.59,60.59,0,0,0-43-17.81"/><path class="cls-2" d="M50.41,50.41a60.59,60.59,0,0,0-17.81,43"/><line class="cls-2" x1="152.49" y1="45.04" x2="147.12" y2="39.66"/><line class="cls-2" x1="141.75" y1="34.29" x2="147.12" y2="39.66"/><line class="cls-2" x1="34.29" y1="141.75" x2="39.66" y2="147.12"/><line class="cls-2" x1="45.04" y1="152.49" x2="39.66" y2="147.12"/><line class="cls-2" x1="147.12" y1="39.66" x2="147.12" y2="39.66"/><line class="cls-2" x1="39.66" y1="147.12" x2="39.66" y2="147.12"/><line class="cls-2" x1="39.66" y1="147.12" x2="50.41" y2="136.37"/><line class="cls-2" x1="147.12" y1="39.66" x2="136.37" y2="50.41"/><line class="cls-2" x1="169.37" y1="85.79" x2="169.37" y2="93.39"/><line class="cls-2" x1="169.37" y1="93.39" x2="169.37" y2="100.99"/><line class="cls-2" x1="17.41" y1="100.99" x2="17.41" y2="93.39"/><line class="cls-2" x1="17.41" y1="85.79" x2="17.41" y2="93.39"/><line class="cls-2" x1="32.6" y1="93.39" x2="17.41" y2="93.39"/><line class="cls-2" x1="169.37" y1="93.39" x2="154.18" y2="93.39"/><line class="cls-2" x1="147.12" y1="147.12" x2="141.75" y2="152.49"/><line class="cls-2" x1="152.49" y1="141.75" x2="147.12" y2="147.12"/><line class="cls-2" x1="34.29" y1="45.04" x2="39.66" y2="39.66"/><line class="cls-2" x1="39.66" y1="39.66" x2="45.04" y2="34.29"/><line class="cls-2" x1="39.66" y1="39.66" x2="39.66" y2="39.66"/><line class="cls-2" x1="147.12" y1="147.12" x2="147.12" y2="147.12"/><line class="cls-2" x1="147.12" y1="147.12" x2="136.37" y2="136.37"/><line class="cls-2" x1="39.66" y1="39.66" x2="50.41" y2="50.41"/><path class="cls-3" d="M292.32,57.5h-55.2a.53.53,0,0,0-.6.6V95.15a.53.53,0,0,0,.6.6h38.7a1.33,1.33,0,0,1,1.5,1.5v6.3a1.33,1.33,0,0,1-1.5,1.5h-38.7a.53.53,0,0,0-.6.6V143.3a.53.53,0,0,0,.6.6h55.2a1.33,1.33,0,0,1,1.5,1.5v6.3a1.33,1.33,0,0,1-1.5,1.5H227.37a1.33,1.33,0,0,1-1.5-1.5V49.7a1.33,1.33,0,0,1,1.5-1.5h64.95a1.33,1.33,0,0,1,1.5,1.5V56A1.33,1.33,0,0,1,292.32,57.5Z"/><path class="cls-3" d="M373.17,48.2h7.65a1.33,1.33,0,0,1,1.5,1.5v102a1.33,1.33,0,0,1-1.5,1.5h-7.5a2.15,2.15,0,0,1-1.8-1L320.37,68.9c-.11-.3-.26-.42-.45-.37s-.3.22-.3.52l.15,82.65a1.33,1.33,0,0,1-1.5,1.5h-7.65a1.32,1.32,0,0,1-1.5-1.5V49.7a1.33,1.33,0,0,1,1.5-1.5h7.5a2.2,2.2,0,0,1,1.8,1l51.15,83.25c.09.3.24.43.45.38s.3-.23.3-.53l-.15-82.65A1.33,1.33,0,0,1,373.17,48.2Z"/><path class="cls-3" d="M416.51,150.43a30,30,0,0,1-12.37-11.7,34,34,0,0,1-4.43-17.48V80a33.31,33.31,0,0,1,4.43-17.25,30.16,30.16,0,0,1,12.37-11.62A39.51,39.51,0,0,1,435,47a40.11,40.11,0,0,1,18.45,4,30,30,0,0,1,12.38,11.4,32.21,32.21,0,0,1,4.42,17,1.62,1.62,0,0,1-.45,1.2,1.44,1.44,0,0,1-1.05.45l-7.65.45q-1.5,0-1.5-1.35V79.7q0-10.65-6.75-17T435,56.3q-11.1,0-17.85,6.45t-6.75,17v42q0,10.5,6.75,17T435,145.1q11.1,0,17.85-6.37t6.75-17v-.3q0-1.35,1.5-1.35l7.65.45q1.5,0,1.5,1.35A32.92,32.92,0,0,1,465.79,139a29.84,29.84,0,0,1-12.38,11.47A40.11,40.11,0,0,1,435,154.55,39.51,39.51,0,0,1,416.51,150.43Z"/><path class="cls-3" d="M501.41,48.2h8.1a1.33,1.33,0,0,1,1.5,1.5v102a1.33,1.33,0,0,1-1.5,1.5h-7.65a1.33,1.33,0,0,1-1.5-1.5V60.35a.49.49,0,0,0-.75-.45l-15.9,6.45-.6.15q-.9,0-1.2-1.2l-.75-5.7v-.3q0-.75,1-1.5l17.25-9.15A4.3,4.3,0,0,1,501.41,48.2Z"/><path class="cls-3" d="M585.86,80.75v46.8q0,12.3-8.1,19.58t-21.15,7.27q-12.6,0-20.47-7.12t-7.88-18.53v-2.1a1.33,1.33,0,0,1,1.5-1.5h7.65a1.33,1.33,0,0,1,1.5,1.5v1.2a16.57,16.57,0,0,0,5,12.45,17.55,17.55,0,0,0,12.75,4.8,18.52,18.52,0,0,0,13.35-5q5.25-5,5.25-13.28V104.9a.35.35,0,0,0-.3-.37.36.36,0,0,0-.45.22q-6.6,8.85-19.8,8.85-9.45,0-15.82-4.2a26.21,26.21,0,0,1-9.68-11.85Q526,91.25,526,80.45q0-9.15,2.25-15A27,27,0,0,1,538.39,52q7-4.8,17.17-4.8,10.8,0,18.23,5.18a26.48,26.48,0,0,1,10.27,14.32A49.29,49.29,0,0,1,585.86,80.75Zm-18.67,20.33a16.69,16.69,0,0,0,6.37-8.93q1.65-4.35,1.65-12.15a38.56,38.56,0,0,0-1.35-11,17.77,17.77,0,0,0-6.45-9.15A18.6,18.6,0,0,0,556,56.45a19,19,0,0,0-11.1,3.23,17.34,17.34,0,0,0-6.6,9.37,32,32,0,0,0-1.65,11.4q0,7.65,2,12a16.92,16.92,0,0,0,6.3,8.63A18.56,18.56,0,0,0,556,104.3,18.92,18.92,0,0,0,567.19,101.08Z"/></g></g></svg>