<svg id="Lupa" xmlns="http://www.w3.org/2000/svg" width="32" height="32" viewBox="0 0 32 32">
  <path id="Caminho_428" data-name="Caminho 428" d="M16,0A16,16,0,1,1,0,16,16,16,0,0,1,16,0Z"/>
  <g id="search" transform="translate(7.323 7.323)">
    <path id="Caminho_2" data-name="Caminho 2" d="M17.839,16.409l-3.425-3.415a7.978,7.978,0,0,0,1.7-4.936,8.058,8.058,0,1,0-8.058,8.058,7.978,7.978,0,0,0,4.936-1.7l3.415,3.425a1.011,1.011,0,1,0,1.43-1.43ZM2.015,8.058A6.044,6.044,0,1,1,8.058,14.1,6.044,6.044,0,0,1,2.015,8.058Z" transform="translate(0 0)" fill="#dac960"/>
  </g>
</svg>
