<svg xmlns="http://www.w3.org/2000/svg" viewBox="0 0 105 105"><defs><style>.cls-1{fill:#191919;}.cls-2{fill:none;stroke:#fff;stroke-miterlimit:10;stroke-width:3px;}</style></defs><title>Ativo 5</title><g id="Camada_2" data-name="Camada 2"><g id="Camada_1-2" data-name="Camada 1"><circle class="cls-1" cx="52.5" cy="52.5" r="52.5"/><path class="cls-2" d="M78.56,55.32A25.61,25.61,0,1,1,50.67,27.44a2.19,2.19,0,0,1,2.39,2.17V50.78a2.16,2.16,0,0,0,2.16,2.16H76.41A2.17,2.17,0,0,1,78.56,55.32Z"/><path class="cls-2" d="M81.32,48H60.2a2.15,2.15,0,0,1-2.15-2.15V24.59a2.14,2.14,0,0,1,2.36-2.13,25.61,25.61,0,0,1,23.13,23A2.24,2.24,0,0,1,81.32,48Z"/></g></g></svg>