<svg xmlns="http://www.w3.org/2000/svg" viewBox="0 0 105 105"><defs><style>.cls-1{fill:#dac960;}.cls-2{fill:none;stroke:#1d1d1b;stroke-linecap:round;stroke-miterlimit:10;stroke-width:3px;}</style></defs><title>Ativo 9</title><g id="Camada_2" data-name="Camada 2"><g id="Camada_1-2" data-name="Camada 1"><circle class="cls-1" cx="52.5" cy="52.5" r="52.5"/><path class="cls-2" d="M29.59,35.11l10.33-5.75a2.65,2.65,0,0,1,2.74.09l8.49,5.48a2.67,2.67,0,0,0,2.9,0l8.39-5.47a2.64,2.64,0,0,1,2.75-.09l10.22,5.74a2.66,2.66,0,0,1,1.36,2.32V71.79a2.66,2.66,0,0,1-4,2.29l-7.54-4.4a2.66,2.66,0,0,0-2.83.09l-8.31,5.64a2.67,2.67,0,0,1-3,0l-8.42-5.66a2.64,2.64,0,0,0-2.81-.1L32.22,74.1a2.66,2.66,0,0,1-4-2.3V37.43A2.66,2.66,0,0,1,29.59,35.11Z"/><line class="cls-2" x1="41.31" y1="28.58" x2="41.31" y2="68.83"/><line class="cls-2" x1="52.5" y1="35.87" x2="52.6" y2="76.42"/><line class="cls-2" x1="63.79" y1="28.58" x2="63.79" y2="68.83"/></g></g></svg>