<svg id="Grupo_27" data-name="Grupo 27" xmlns="http://www.w3.org/2000/svg" width="27" height="27" viewBox="0 0 27 27">
  <path id="Caminho_408" data-name="Caminho 408" d="M17.143,7.518a2.328,2.328,0,0,0-1.335-1.334,3.888,3.888,0,0,0-1.3-.242c-.741-.034-.963-.042-2.84-.042s-2.1.008-2.84.042a3.888,3.888,0,0,0-1.306.242A2.328,2.328,0,0,0,6.184,7.519a3.888,3.888,0,0,0-.242,1.3c-.034.741-.042.963-.042,2.84s.008,2.1.042,2.84a3.888,3.888,0,0,0,.242,1.306,2.328,2.328,0,0,0,1.335,1.334,3.888,3.888,0,0,0,1.3.242c.741.034.963.042,2.84.042s2.1-.008,2.84-.042a3.888,3.888,0,0,0,1.306-.242,2.328,2.328,0,0,0,1.334-1.335,3.888,3.888,0,0,0,.242-1.3c.034-.741.042-.963.042-2.84s-.008-2.1-.042-2.84a3.888,3.888,0,0,0-.242-1.306Zm-5.48,7.756a3.61,3.61,0,1,1,3.61-3.61,3.61,3.61,0,0,1-3.61,3.61Zm3.752-6.518a.843.843,0,1,1,.843-.843A.843.843,0,0,1,15.416,8.755Z" transform="translate(1.836 1.836)" fill="#404040"/>
  <circle id="Elipse_1" data-name="Elipse 1" cx="2.343" cy="2.343" r="2.343" transform="translate(11.157 11.157)" fill="#404040"/>
  <path id="Caminho_409" data-name="Caminho 409" d="M13.9.4A13.5,13.5,0,1,0,27.4,13.9,13.5,13.5,0,0,0,13.9.4Zm6.989,16.4a5.161,5.161,0,0,1-.328,1.706,3.594,3.594,0,0,1-2.056,2.056,5.161,5.161,0,0,1-1.706.328c-.751.034-.99.042-2.9.042s-2.149-.008-2.9-.042a5.161,5.161,0,0,1-1.706-.328,3.594,3.594,0,0,1-2.056-2.056A5.161,5.161,0,0,1,6.911,16.8c-.034-.751-.042-.99-.042-2.9s.008-2.149.042-2.9a5.161,5.161,0,0,1,.328-1.706A3.594,3.594,0,0,1,9.295,7.239,5.161,5.161,0,0,1,11,6.911c.751-.034.99-.042,2.9-.042s2.149.008,2.9.042a5.161,5.161,0,0,1,1.706.328,3.594,3.594,0,0,1,2.056,2.056A5.161,5.161,0,0,1,20.889,11c.034.751.042.99.042,2.9s-.008,2.149-.042,2.9Z" transform="translate(-0.4 -0.4)" fill="#404040"/>
</svg>
