<svg id="Grupo_29" data-name="Grupo 29" xmlns="http://www.w3.org/2000/svg" width="27" height="27" viewBox="0 0 27 27">
  <path id="Exclusão_1" data-name="Exclusão 1" d="M13.5,27A13.5,13.5,0,0,1,8.245,1.061a13.5,13.5,0,0,1,10.51,24.878A13.413,13.413,0,0,1,13.5,27ZM6.041,19.521h0a9.177,9.177,0,0,0,14.127-7.732c0-.141,0-.281-.009-.417a6.517,6.517,0,0,0,1.61-1.67,6.446,6.446,0,0,1-1.854.507,3.229,3.229,0,0,0,1.419-1.785,6.442,6.442,0,0,1-2.049.783,3.23,3.23,0,0,0-5.5,2.944,9.085,9.085,0,0,1-3.734-1A9.157,9.157,0,0,1,7.135,8.779a3.23,3.23,0,0,0,1,4.308,3.224,3.224,0,0,1-1.462-.4c0,.014,0,.028,0,.041a3.235,3.235,0,0,0,2.589,3.164,3.219,3.219,0,0,1-.85.113,3.256,3.256,0,0,1-.607-.057,3.226,3.226,0,0,0,3.014,2.241,6.514,6.514,0,0,1-4.777,1.336Z" transform="translate(0)" fill="#404040"/>
</svg>
